<svg xmlns="http://www.w3.org/2000/svg" xmlns:xlink="http://www.w3.org/1999/xlink" width="728" height="106" version="1.1" viewBox="0 0 728 106"><title>placeholder-channel-events_border</title><defs><rect id="path-1" width="117" height="106" x="0" y="0" rx="4"/><rect id="path-3" width="243" height="106" x="0" y="0" rx="4"/><rect id="path-5" width="154" height="106" x="0" y="0" rx="4"/><rect id="path-7" width="198" height="106" x="0" y="0" rx="4"/></defs><g id="placeholder-channel-events_border" fill="none" fill-rule="evenodd" stroke="none" stroke-width="1"><g id="Components/Desktop/Grid/Item-linear-off/Normal" transform="translate(2.000000, 0.000000)"><g id="Item-linear-off"><mask id="mask-2" fill="#fff"><use xlink:href="#path-1"/></mask><use id="Rectangle-4" fill="#EFEFEF" xlink:href="#path-1"/></g><rect id="Rectangle" width="69" height="18" x="24" y="16" fill="#E5E5E5" fill-rule="nonzero"/><rect id="Rectangle-Copy" width="69" height="12" x="24" y="40" fill="#E5E5E5" fill-rule="nonzero"/><rect id="Rectangle-Copy-2" width="45" height="12" x="24" y="78" fill="#E5E5E5" fill-rule="nonzero"/></g><g id="Components/Desktop/Grid/Item-linear-off/Normal-Copy" transform="translate(123.000000, 0.000000)"><g id="Item-linear-off"><mask id="mask-4" fill="#fff"><use xlink:href="#path-3"/></mask><use id="Rectangle-4" fill="#EFEFEF" xlink:href="#path-3"/></g><rect id="Rectangle" width="140.893" height="18" x="23.997" y="16" fill="#E5E5E5" fill-rule="nonzero"/><rect id="Rectangle-Copy" width="106.857" height="14" x="23.997" y="42" fill="#E5E5E5" fill-rule="nonzero"/><rect id="Rectangle-Copy-2" width="70.446" height="14" x="23.997" y="76" fill="#E5E5E5" fill-rule="nonzero"/></g><g id="Components/Desktop/Grid/Item-linear-off/Normal-Copy-2" transform="translate(370.000000, 0.000000)"><g id="Item-linear-off"><mask id="mask-6" fill="#fff"><use xlink:href="#path-5"/></mask><use id="Rectangle-4" fill="#EFEFEF" xlink:href="#path-5"/></g><rect id="Rectangle" width="106" height="18" x="24" y="16" fill="#E5E5E5" fill-rule="nonzero"/><rect id="Rectangle-Copy" width="83" height="14" x="24" y="42" fill="#E5E5E5" fill-rule="nonzero"/><rect id="Rectangle-Copy-2" width="53" height="14" x="24" y="76" fill="#E5E5E5" fill-rule="nonzero"/></g><g id="Components/Desktop/Grid/Item-linear-off/Normal-Copy-3" transform="translate(528.000000, 0.000000)"><g id="Item-linear-off"><mask id="mask-8" fill="#fff"><use xlink:href="#path-7"/></mask><use id="Rectangle-4" fill="#EFEFEF" xlink:href="#path-7"/></g><rect id="Rectangle" width="150" height="18" x="24" y="16" fill="#E5E5E5" fill-rule="nonzero"/><rect id="Rectangle-Copy" width="87.948" height="14" x="24" y="42" fill="#E5E5E5" fill-rule="nonzero"/><rect id="Rectangle-Copy-2" width="57.98" height="14" x="24" y="76" fill="#E5E5E5" fill-rule="nonzero"/></g></g></svg>